# xmcd
#
# Track frame offsets:
#	150
#	17591
#	30760
#	49217
#
# Disc length: 923 seconds
#
# Revision: 0
# Processed by: cddbd v1.5.2PL0 Copyright (c) Steve Scherf et al.
# Submitted via: EasyCDDAExtractor 10.0.3.1
#
DISCID=21039904
DTITLE=LIVE - SINGLE
DYEAR=1900
DGENRE=
TTITLE0=Heaven
TTITLE1=Life Marches On
TTITLE2=Forever May Not Be Long Enough - EGYPTIAN DREAMS REMIX
TTITLE3=Overcome - LIVE
EXTD=
EXTT0=
EXTT1=
EXTT2=
EXTT3=
PLAYORDER=
